<svg id="Livello_1" data-name="Livello 1" xmlns="http://www.w3.org/2000/svg" xmlns:xlink="http://www.w3.org/1999/xlink" viewBox="0 0 152.57 37.97"><defs><style>.cls-1{fill:#ffe500;}.cls-2{fill:#fff48c;}.cls-3{fill:none;stroke:#45413c;stroke-linecap:round;stroke-linejoin:round;}.cls-4{fill:#d4d54d;}.cls-5{fill:url(#Sfumatura_senza_nome_41);}.cls-6{fill:url(#Sfumatura_senza_nome_67);}.cls-7{font-size:19px;fill:#2fa5e6;font-family:SegoeUI-Bold, Segoe UI;font-weight:700;}.cls-8{fill:url(#Sfumatura_senza_nome_116);}.cls-9{fill:url(#Sfumatura_senza_nome_142);}</style><linearGradient id="Sfumatura_senza_nome_41" x1="968" y1="540.65" x2="979" y2="540.65" gradientUnits="userSpaceOnUse"><stop offset="0.2" stop-color="#4ccbee"/><stop offset="1" stop-color="#2597e2"/></linearGradient><linearGradient id="Sfumatura_senza_nome_67" x1="981.17" y1="540.53" x2="989.09" y2="540.53" gradientUnits="userSpaceOnUse"><stop offset="0.15" stop-color="#45c3ed"/><stop offset="0.21" stop-color="#3eb9eb"/><stop offset="0.34" stop-color="#35aee8"/><stop offset="0.51" stop-color="#30a7e6"/><stop offset="1" stop-color="#2fa5e6"/></linearGradient><linearGradient id="Sfumatura_senza_nome_116" x1="999.82" y1="540.53" x2="1010.98" y2="540.53" gradientUnits="userSpaceOnUse"><stop offset="0.45" stop-color="#2ca0e5"/><stop offset="0.5" stop-color="#32a9e7"/><stop offset="0.62" stop-color="#3cb7ea"/><stop offset="0.76" stop-color="#42bfeb"/><stop offset="1" stop-color="#44c2ec"/></linearGradient><linearGradient id="Sfumatura_senza_nome_142" x1="1011.92" y1="540.53" x2="1025.04" y2="540.53" gradientUnits="userSpaceOnUse"><stop offset="0.1" stop-color="#4fd0ef"/><stop offset="0.19" stop-color="#3eb9ea"/><stop offset="0.29" stop-color="#2ea5e6"/><stop offset="0.4" stop-color="#2598e3"/><stop offset="0.5" stop-color="#2294e2"/><stop offset="1" stop-color="#4ecdee"/></linearGradient></defs><path class="cls-1" d="M935.58,545.64l-.1,3.3-11.3-11.3a2.6,2.6,0,0,0-3.4-.3,2.49,2.49,0,0,0-.2,3.7l-1.6-1.6a2.79,2.79,0,0,0-3.8-.2,2.72,2.72,0,0,0-.1,3.9l-.1-.1a2.62,2.62,0,0,0-3-.5,2.41,2.41,0,0,0-.5,3.9l3,3a2.09,2.09,0,0,0-3.2.2,2.29,2.29,0,0,0,.2,3l12.6,12.7a9.39,9.39,0,0,0,13.4-.1,14.06,14.06,0,0,0,4-10.8l-.4-12.1a1,1,0,0,0-1.1-1h0A4.42,4.42,0,0,0,935.58,545.64Z" transform="translate(-903.43 -531.03)"/><path class="cls-2" d="M935.38,548.84l-11.2-11.2a2.6,2.6,0,0,0-3.4-.3,2.52,2.52,0,0,0-.4,3.5c.1-.1.2-.3.4-.4a2.6,2.6,0,0,1,3.4.3l9.7,9.7Z" transform="translate(-903.43 -531.03)"/><path class="cls-2" d="M941.18,545.44l-.1-3.1a1,1,0,0,0-1.1-1,4.35,4.35,0,0,0-4.4,4.3l-.1,3.3.1-.1a4.49,4.49,0,0,1,4.4-4.3A1,1,0,0,1,941.18,545.44Z" transform="translate(-903.43 -531.03)"/><path class="cls-3" d="M935.58,545.64l-.1,3.3-11.3-11.3a2.6,2.6,0,0,0-3.4-.3,2.49,2.49,0,0,0-.2,3.7l-1.6-1.6a2.79,2.79,0,0,0-3.8-.2,2.72,2.72,0,0,0-.1,3.9l-.1-.1a2.62,2.62,0,0,0-3-.5,2.41,2.41,0,0,0-.5,3.9l3,3a2.09,2.09,0,0,0-3.2.2,2.29,2.29,0,0,0,.2,3l12.6,12.7a9.39,9.39,0,0,0,13.4-.1,14.06,14.06,0,0,0,4-10.8l-.4-12.1a1,1,0,0,0-1.1-1h0A4.42,4.42,0,0,0,935.58,545.64Z" transform="translate(-903.43 -531.03)"/><line class="cls-3" x1="10.95" y1="18.51" x2="17.05" y2="24.51"/><line class="cls-3" x1="11.65" y1="12.11" x2="20.55" y2="21.01"/><line class="cls-3" x1="17.15" y1="10.01" x2="24.35" y2="17.21"/><path class="cls-3" d="M935.38,548.84l-3.6,3.6a6.1,6.1,0,0,0,0,8.5h0" transform="translate(-903.43 -531.03)"/><path class="cls-3" d="M926.18,535.14a8.46,8.46,0,0,1,4.3,2,10,10,0,0,1,2.7,4" transform="translate(-903.43 -531.03)"/><path class="cls-3" d="M926.78,532.44a10.92,10.92,0,0,1,5.3,2.4,11.61,11.61,0,0,1,3.3,4.9" transform="translate(-903.43 -531.03)"/><path class="cls-3" d="M906.68,550.54a8.7,8.7,0,0,0,4,8.3" transform="translate(-903.43 -531.03)"/><path class="cls-3" d="M904,550.44a11.3,11.3,0,0,0,1,5.8,12.15,12.15,0,0,0,3.9,4.5" transform="translate(-903.43 -531.03)"/><polygon class="cls-4" points="58.57 21.97 67.3 37.63 70.57 31.97 73.57 37.97 81.57 21.97 78.57 21.97 73.57 30.97 72.57 28.97 76.57 21.97 72.32 21.97 70.57 25.97 68.57 21.97 64.57 21.97 68.57 28.97 67.57 30.97 62.57 21.97 58.57 21.97"/><polyline class="cls-4" points="81.27 36.97 81.27 22.97 88.61 22.97 88.61 25.75 84.62 25.75 84.62 28.43 88.68 28.43 87.66 31.47 84.62 31.47 84.64 34.13 89.69 34.13 89.69 34.52 88.79 36.97 81.58 36.97"/><polygon class="cls-4" points="91.34 36.97 98.86 36.97 99.69 33.5 94.68 33.5 94.68 22.97 91.34 23.72 91.34 36.97"/><polygon class="cls-4" points="129.57 36.97 132.81 35.89 132.81 29.8 134.96 34.81 137.11 34.81 139.35 29.8 139.35 36.97 142.5 36.97 142.5 22.97 139.27 22.97 136.03 28.35 132.81 22.97 129.57 22.97 129.57 36.97"/><path class="cls-4" d="M1025,554a7,7,0,1,0,7,7A7,7,0,0,0,1025,554Zm0,10.77a3.77,3.77,0,1,1,3.77-3.77A3.77,3.77,0,0,1,1025,564.77Z" transform="translate(-903.43 -531.03)"/><path class="cls-4" d="M1014.23,562.93a3.78,3.78,0,1,1-.05-3.93l2.74-1.72a7,7,0,1,0,.08,7.31Z" transform="translate(-903.43 -531.03)"/><polyline class="cls-4" points="144.16 36.95 144.16 22.97 151.5 22.97 151.5 25.75 147.51 25.75 147.51 28.43 151.56 28.43 150.55 31.46 147.51 31.46 147.53 34.12 152.57 34.12 152.57 34.5 151.67 36.95 144.47 36.95"/><path class="cls-5" d="M979,541.42c0,4-1.86,6-5.58,6s-5.42-1.95-5.42-5.85v-7.68h3v7.72c0,2.15.84,3.23,2.53,3.23s2.47-1,2.47-3.12v-7.83h3Z" transform="translate(-903.43 -531.03)"/><path class="cls-6" d="M989.09,547.18h-7.92v-13.3h3v10.87h4.93Z" transform="translate(-903.43 -531.03)"/><text class="cls-7" transform="translate(83.51 16.15)">T</text><path class="cls-8" d="M1011,547.18h-3.44l-2.07-3.42c-.15-.26-.3-.49-.44-.7a5,5,0,0,0-.43-.52,1.52,1.52,0,0,0-.46-.33,1.13,1.13,0,0,0-.51-.12h-.81v5.09h-3v-13.3h4.75c3.23,0,4.85,1.2,4.85,3.62a3.78,3.78,0,0,1-.22,1.28,3.46,3.46,0,0,1-.6,1.06,3.91,3.91,0,0,1-.94.82,4.88,4.88,0,0,1-1.23.54v0a1.74,1.74,0,0,1,.57.3,4,4,0,0,1,.54.48c.17.19.34.39.5.6s.3.42.43.63Zm-8.16-11.06v3.71h1.3a2.17,2.17,0,0,0,1.55-.56,1.89,1.89,0,0,0,.59-1.4c0-1.16-.7-1.75-2.09-1.75Z" transform="translate(-903.43 -531.03)"/><path class="cls-9" d="M1025,547.18h-3.26l-.95-3h-4.73l-.94,3h-3.24l4.84-13.3h3.55Zm-4.89-5.26-1.43-4.47a5.82,5.82,0,0,1-.23-1.2h-.07a5.18,5.18,0,0,1-.23,1.16l-1.45,4.51Z" transform="translate(-903.43 -531.03)"/></svg>